<svg width="24" height="25" viewBox="0 0 24 25" fill="none" xmlns="http://www.w3.org/2000/svg">
<path d="M12 2.54004C6.5 2.54004 2 7.03004 2 12.56C2 17.56 5.66 21.71 10.44 22.46V15.46H7.9V12.56H10.44V10.35C10.44 7.84004 11.93 6.46004 14.22 6.46004C15.31 6.46004 16.45 6.65004 16.45 6.65004V9.12004H15.19C13.95 9.12004 13.56 9.89004 13.56 10.68V12.56H16.34L15.89 15.46H13.56V22.46C15.9164 22.0879 18.0622 20.8856 19.6099 19.0701C21.1576 17.2546 22.0054 14.9457 22 12.56C22 7.03004 17.5 2.54004 12 2.54004Z" fill="white"/>
</svg>
