<svg width="20" height="23" viewBox="0 0 20 23" fill="none" xmlns="http://www.w3.org/2000/svg">
<g clip-path="url(#clip0_642_36)">
<path d="M10.0044 6.33403C7.16511 6.33403 4.87493 8.63852 4.87493 11.4956C4.87493 14.3526 7.16511 16.6571 10.0044 16.6571C12.8437 16.6571 15.1339 14.3526 15.1339 11.4956C15.1339 8.63852 12.8437 6.33403 10.0044 6.33403ZM10.0044 14.8512C8.16957 14.8512 6.66957 13.3463 6.66957 11.4956C6.66957 9.64477 8.16511 8.13989 10.0044 8.13989C11.8437 8.13989 13.3392 9.64477 13.3392 11.4956C13.3392 13.3463 11.8392 14.8512 10.0044 14.8512ZM16.5401 6.1229C16.5401 6.79224 16.0044 7.32681 15.3437 7.32681C14.6785 7.32681 14.1473 6.78774 14.1473 6.1229C14.1473 5.45806 14.683 4.91899 15.3437 4.91899C16.0044 4.91899 16.5401 5.45806 16.5401 6.1229ZM19.9374 7.34478C19.8615 5.73208 19.4955 4.30356 18.3214 3.12661C17.1517 1.94966 15.7321 1.5813 14.1294 1.50044C12.4776 1.4061 7.52672 1.4061 5.87493 1.50044C4.27672 1.57681 2.85707 1.94517 1.68297 3.12212C0.508859 4.29907 0.147252 5.72759 0.0668945 7.34028C-0.0268555 9.00239 -0.0268555 13.9842 0.0668945 15.6463C0.142787 17.259 0.508859 18.6875 1.68297 19.8645C2.85707 21.0415 4.27225 21.4098 5.87493 21.4907C7.52672 21.585 12.4776 21.585 14.1294 21.4907C15.7321 21.4143 17.1517 21.0459 18.3214 19.8645C19.491 18.6875 19.8571 17.259 19.9374 15.6463C20.0312 13.9842 20.0312 9.00688 19.9374 7.34478ZM17.8035 17.4297C17.4553 18.3102 16.7812 18.9885 15.9017 19.3434C14.5848 19.869 11.4598 19.7477 10.0044 19.7477C8.54904 19.7477 5.41957 19.8645 4.10707 19.3434C3.23207 18.993 2.55797 18.3147 2.20529 17.4297C1.68297 16.1045 1.8035 12.96 1.8035 11.4956C1.8035 10.0311 1.68743 6.88208 2.20529 5.56138C2.5535 4.68091 3.22761 4.00259 4.10707 3.6477C5.42404 3.12212 8.54904 3.24341 10.0044 3.24341C11.4598 3.24341 14.5892 3.12661 15.9017 3.6477C16.7767 3.9981 17.4508 4.67642 17.8035 5.56138C18.3258 6.88657 18.2053 10.0311 18.2053 11.4956C18.2053 12.96 18.3258 16.109 17.8035 17.4297Z" fill="white"/>
</g>
<defs>
<clipPath id="clip0_642_36">
<rect width="20" height="23" fill="white"/>
</clipPath>
</defs>
</svg>
