<svg width="34" height="9" viewBox="0 0 34 9" fill="none" xmlns="http://www.w3.org/2000/svg">
<path d="M4.98426 1.5507C3.73932 1.51612 1.9964 1.58528 0.730713 1.58528V8.05897H2.54279V3.1622C2.54279 3.1622 4.1543 3.10687 4.73527 3.17604C5.28166 3.23828 5.48224 3.57718 5.50298 4.28265C5.51682 5.08495 5.50298 5.50684 5.50298 8.05897H7.31506C7.31506 8.05897 7.33581 5.14028 7.31506 4.12358C7.2874 2.31841 6.65801 1.5922 4.98426 1.5507Z" fill="white"/>
<path d="M13.3669 1.52954C11.5756 1.52954 10.1162 2.9958 10.1162 4.80097C10.1162 6.60613 11.5756 8.07239 13.3669 8.07239C15.1582 8.07239 16.6176 6.60613 16.6176 4.80097C16.6176 2.9958 15.1582 1.52954 13.3669 1.52954ZM13.3669 6.5093C12.4263 6.5093 11.6655 5.74159 11.6655 4.79405C11.6655 3.84651 12.4263 3.0788 13.3669 3.0788C14.3075 3.0788 15.0683 3.84651 15.0683 4.79405C15.0683 5.74851 14.3075 6.5093 13.3669 6.5093Z" fill="white"/>
<path d="M33.7423 4.80097C33.7423 2.9958 32.283 1.52954 30.4916 1.52954C28.7003 1.52954 27.241 2.9958 27.241 4.80097C27.241 5.85917 27.7251 6.76521 28.479 7.36693C29.0046 7.78191 29.7378 8.07239 30.7199 8.07239C31.1971 8.07239 32.4351 7.94098 33.3273 6.95195L32.5942 5.96983C32.283 6.24648 31.5014 6.6338 30.879 6.6338C30.0905 6.6338 29.6133 6.48164 29.2675 6.15657C29.053 5.96291 28.9009 5.66551 28.8317 5.29894H33.6939C33.7216 5.13295 33.7423 4.97388 33.7423 4.80097ZM28.8456 4.20616C29.0254 3.43845 29.5649 2.87131 30.4847 2.87131C31.4461 2.87131 31.951 3.47995 32.117 4.20616H28.8456Z" fill="white"/>
<path d="M22.7731 0.927979H21.0786V2.74697H19.3357V4.33773H21.0786V6.22589H22.7731V4.33773H24.516V2.74697H22.7731V0.927979Z" fill="white"/>
</svg>
