<svg width="50" height="51" viewBox="0 0 50 51" fill="none" xmlns="http://www.w3.org/2000/svg">
<path d="M40.4993 19.6992C38.9729 18.359 36.9148 19.5313 35.9697 20.9407C35.4082 21.7788 35.0378 22.7667 34.6212 23.6805C34.2277 23.7463 33.8325 23.8056 33.439 23.8534C31.9917 24.0312 30.5329 24.0938 29.0758 24.0575C28.7119 24.0477 28.348 24.0328 27.9841 24.0114C25.465 24.1003 22.0073 24.9236 20.8547 23.4417C19.5375 21.7952 23.9831 23.2771 25.4534 22.1147C25.5522 22.0159 25.6757 21.7442 25.7004 21.3243C25.7498 21.1514 25.6757 20.6575 25.4534 20.5093C25.2311 20.3611 25.1077 20.2129 24.6878 20.1635C24.3667 20.04 24.0457 20.1388 23.5517 20.1388C23.2553 20.2376 22.7861 20.1388 22.465 20.1388C22.1933 20.1141 21.6994 20.1635 21.1313 20.1388C20.3904 20.1141 20.341 19.8178 20.341 19.225C20.3904 18.8052 20.1434 18.4347 19.8718 18.2865C19.5754 18.1136 19.3284 18.1136 19.0073 18.0889C18.711 18.0642 18.1676 18.0642 18.0194 18.2865C17.6984 18.5582 17.5996 18.8052 17.5502 19.1015C17.6243 19.5708 17.5008 19.9907 17.5502 20.4105C17.5749 20.8304 17.5255 21.2008 17.5502 21.6701C17.4267 22.1887 17.5255 22.5345 17.5502 23.2195C17.3954 24.0987 16.2428 24.428 15.525 23.8188C15.4262 23.5718 15.3521 23.4977 15.3521 22.9297C15.3521 22.5098 15.278 22.1147 15.3274 21.7442C15.2533 21.3243 15.3521 21.1761 15.3274 20.8304C15.3521 20.6081 15.0557 20.2623 14.8828 20.04C14.6111 19.8178 14.3395 19.7437 13.969 19.7931C13.6232 19.6943 13.3022 19.8178 13.0552 20.04C12.66 20.287 12.6353 20.5834 12.6106 20.8057C12.6106 21.1267 12.6106 21.4231 12.6353 21.6948C12.7341 22.1393 12.5859 22.6086 12.6847 23.0038C12.7835 23.3742 12.6353 23.6459 12.4871 23.8435C12.339 24.1646 11.8203 24.1893 11.7215 24.1399C11.1288 24.1399 10.5607 24.1646 10.1903 24.1646C9.7704 24.1152 9.59752 24.3127 9.42463 24.535C9.20235 24.6585 9.15296 25.029 9.17765 25.35C9.15296 25.6958 9.25175 26.0416 9.42463 26.1651C9.59752 26.338 9.89389 26.5108 10.1903 26.5355C10.4866 26.5602 10.8571 26.5108 11.277 26.5602C11.5486 26.6343 11.8697 26.6096 12.339 26.5602C12.66 26.659 13.154 26.6096 13.401 26.5602C13.722 26.5602 14.1913 26.5108 14.463 26.5569C19.2066 25.9115 24.1461 25.9115 28.977 26.5619C29.4676 26.5751 29.9583 26.5767 30.4489 26.5668C31.4303 26.5471 32.4099 26.4812 33.388 26.3676C33.3007 26.5586 33.2134 26.7479 33.1262 26.9389C32.3161 28.704 31.2245 30.6403 32.3556 32.5223C33.0702 33.7094 34.4417 34.2807 35.1711 35.4135C35.9664 36.6484 33.523 37.8224 32.8298 38.5123C31.1635 40.1703 31.231 42.5792 32.5203 44.4545C33.1986 45.4408 34.1009 46.2081 34.9505 47.0363C35.6552 47.7229 36.4604 48.5659 36.5624 49.5999C36.6283 50.2749 37.0926 50.8562 37.8187 50.8562C38.4477 50.8562 39.1425 50.2799 39.075 49.5999C38.9071 47.8908 38.0278 46.5472 36.8275 45.3585C35.7869 44.3261 34.1717 43.2345 34.0449 41.6324C33.9297 40.167 35.866 39.4343 36.7057 38.5221C37.7479 37.3926 38.2122 35.8746 37.5042 34.4421C36.9856 33.3933 35.9928 32.738 35.1596 31.9641C34.8484 31.676 34.4763 31.345 34.3759 30.9136C34.1981 30.1562 34.8616 29.1568 35.1613 28.5031C35.5515 27.6519 35.9384 26.7973 36.3253 25.9428C37.4713 25.7123 38.5893 25.3533 39.5064 24.6931C40.9751 23.6327 42.1474 21.1465 40.4993 19.6992ZM37.799 22.8194C38.0476 22.3913 38.3275 22.0504 38.7095 21.6767C38.7177 21.6684 38.7276 21.6652 38.7408 21.6619C38.6864 21.8545 38.6469 22.0389 38.5119 22.22C38.3209 22.4736 38.0739 22.6662 37.8006 22.8194H37.799Z" fill="#004B88"/>
<path d="M16.241 16.067C16.241 16.8327 16.3151 17.376 16.2163 17.7465C16.2904 18.0922 16.0187 18.3392 15.8458 18.4874C15.6235 18.5862 15.3025 18.8085 15.0308 18.7344C14.6109 18.8085 14.4628 18.685 14.2158 18.4874C14.0429 18.2898 13.7959 18.1663 13.8206 17.7465C13.8947 17.3513 13.8453 16.8821 13.8206 16.4375C13.8453 16.0176 13.8206 15.7954 13.7712 15.6966C13.6971 15.5731 13.5983 15.5978 13.4748 15.7213C13.302 15.8942 13.0797 16.2152 12.9315 16.3387C12.6104 16.5116 12.4375 16.9068 12.1906 16.9809C11.993 17.2278 11.6472 17.3019 11.499 17.2525C11.2027 17.1537 11.1039 17.1784 10.7828 16.9315C10.5358 16.7339 10.4617 16.6104 10.4864 16.2152C10.4864 15.9682 10.6593 15.4496 10.9063 15.2767C11.1039 14.8815 11.4002 14.8322 11.6966 14.437C11.993 14.2888 12.1165 13.9183 12.3388 13.7208C12.6351 13.5479 12.808 13.1527 13.0303 12.8316C13.1044 12.7082 13.1291 12.6094 13.1044 12.5353C13.0056 12.3871 12.6351 12.3624 12.1412 12.3624C11.5484 12.313 11.3508 12.2142 11.1039 12.0413C11.0051 11.9672 10.9063 11.7202 10.8569 11.3498C10.7828 10.8064 11.2027 10.4113 11.7213 10.3125C12.0424 10.2631 12.4128 10.3372 13.0797 10.2878C13.4255 10.2384 13.8206 10.0655 13.7959 9.39866C13.7959 8.85531 13.87 8.55894 14.2405 8.43545C14.5615 8.21317 14.7097 8.21317 15.0308 8.18848C15.179 8.18848 15.6482 8.33666 15.7964 8.43545C16.0681 8.53424 16.241 8.73183 16.2163 9.15169C16.2163 9.67034 16.3151 9.94201 16.6115 10.1149C16.9078 10.2878 17.4265 10.2631 17.7228 10.2878C18.1427 10.3125 18.365 10.4113 18.5379 10.6335C18.6861 10.9052 18.7108 10.9793 18.7848 11.3498C18.8342 11.5721 18.7355 11.8437 18.5379 12.066C18.4638 12.1401 18.1674 12.4118 17.7969 12.3871C17.0807 12.3624 16.7843 12.4118 16.7102 12.5847C16.6855 12.6341 16.7102 12.7082 16.7349 12.7822C17.0807 13.1774 17.3771 13.3256 17.5994 13.4738C17.8463 13.8195 18.0439 13.9183 18.2662 14.1406C18.4638 14.3876 18.4638 14.6593 18.5379 14.8322C18.3156 15.3755 18.0192 15.746 17.5994 15.7954C17.3524 15.9189 16.9325 15.6472 16.6855 15.4002C16.3398 15.1779 16.1916 15.3261 16.241 16.067Z" fill="#004B88"/>
<path d="M28.516 15.8201C28.5901 16.3634 28.5901 16.6845 28.2937 16.9068C28.1702 17.1537 27.7504 17.3513 27.5034 17.2772C27.0588 17.376 26.5896 17.0549 26.3179 16.6598C26.0709 16.4375 26.0215 16.2646 25.7745 16.1658C25.5523 15.9682 25.4041 15.7954 25.2559 15.6719C24.836 15.252 24.7125 15.3261 24.5644 15.5237C24.4162 15.6225 24.515 16.314 24.4656 16.6351C24.3915 17.0796 24.4903 17.3266 24.4409 17.6477C24.3915 18.0675 24.1692 18.2404 24.0704 18.3886C23.7987 18.5862 23.5024 18.6356 23.2554 18.6356C23.0578 18.6109 22.712 18.5121 22.4404 18.3886C22.3169 18.3392 22.0452 17.9688 22.0452 17.6477C22.144 17.3266 22.0946 16.808 22.0946 16.4375C22.0946 15.5731 22.144 15.3508 21.9711 15.3014C21.7982 15.252 21.6994 15.4002 21.329 15.7954C21.0573 15.9435 21.0079 16.1411 20.8597 16.314C20.6868 16.561 20.341 16.808 19.9706 17.1043C19.6248 17.3513 19.4519 17.4007 19.1556 17.4254C18.7604 17.4995 18.6122 17.2772 18.4146 17.1043C18.143 16.8821 18.1183 16.6351 18.0936 16.3881C18.0442 15.9929 18.4393 15.5731 18.7851 15.2767C19.0074 14.9803 19.3284 14.9309 19.526 14.5852C19.6495 14.2394 20.0447 14.2147 20.2423 13.8442C20.3904 13.6961 20.7856 13.3009 21.0573 12.881C21.2055 12.7329 21.2302 12.6094 21.1314 12.5353C21.0326 12.4365 20.7856 12.3871 20.3657 12.3871C19.9953 12.3871 19.6001 12.3624 19.4025 12.0413C19.1556 11.7449 19.205 11.5721 19.1803 11.3498C19.1309 10.7817 19.5507 10.2137 20.0447 10.3125C20.3164 10.2384 20.7115 10.2631 21.329 10.2878C21.9711 10.2631 22.0452 10.0161 22.0452 9.15169C22.1193 8.65773 22.1934 8.63303 22.4651 8.43545C22.7614 8.33666 22.8108 8.21317 23.2554 8.18848C23.4036 8.18848 23.7493 8.31196 24.021 8.43545C24.3174 8.48485 24.3668 8.73183 24.4409 9.15169C24.4409 9.57155 24.3668 9.89262 24.6384 10.1396C24.7372 10.3125 25.1324 10.3372 25.33 10.2878C25.9721 10.4113 26.4908 10.189 26.9106 10.3125C27.454 10.3125 27.7504 10.7817 27.7504 11.3498C27.701 11.9919 27.3799 12.3624 26.9106 12.3871C26.0956 12.3377 25.6757 12.4365 25.5523 12.6341C25.4041 12.8563 25.5523 13.0292 26.1944 13.622C26.5155 13.7949 26.6637 14.1159 26.9106 14.2394C27.1576 14.5358 27.3552 14.684 27.6763 14.8569C27.9479 15.1532 28.3184 15.3261 28.516 15.8201Z" fill="#004B88"/>
<path d="M24.2448 48.4949C14.7823 48.755 5.74952 42.9247 2.01194 34.2048C-1.9331 25.3943 0.0525897 14.4895 6.83622 7.58565C20.038 -6.06229 42.9343 -0.427925 48.7597 17.5619C49.5369 19.9592 49.9518 22.48 49.9995 25.0057C50.0259 26.3806 48.9326 27.5167 47.5561 27.543C46.145 27.5727 44.9843 26.4086 45.0188 24.9975C45.3811 14.3149 36.974 4.78164 26.3523 3.62249C15.3931 2.18838 4.7682 9.82984 2.48943 20.6672C-0.0527869 31.8948 6.64522 43.3858 17.5995 46.9044C18.6664 47.2567 19.7663 47.5103 20.876 47.7095C21.9891 47.8972 23.1153 47.9911 24.2464 48.0289C24.5461 48.0289 24.556 48.4883 24.2464 48.4949H24.2448Z" fill="#004B88"/>
<path d="M10.2544 36.629C10.2495 36.713 10.2198 36.8118 10.1556 36.8414C10.1112 36.9155 10.0222 36.9155 9.93333 36.9155C9.8543 36.9402 9.76539 36.876 9.70611 36.8414C9.62708 36.8167 9.6172 36.7278 9.60238 36.629C9.5925 36.5796 9.57769 36.4956 9.60238 36.4166C9.5925 36.3623 9.5925 36.2832 9.60238 36.219C9.59744 36.14 9.62214 36.0758 9.60238 36.0165C9.62214 35.9523 9.5925 35.893 9.60238 35.809C9.58262 35.7498 9.61226 35.6757 9.60238 35.6065C9.57769 35.5571 9.5925 35.483 9.60238 35.404C9.61226 35.3447 9.6172 35.2805 9.60238 35.2015C9.61226 35.1274 9.58756 35.0681 9.60238 34.994C9.6172 34.9446 9.59744 34.8557 9.60238 34.7915C9.58262 34.7273 9.62214 34.6532 9.60238 34.589C9.6172 34.5 9.62214 34.4507 9.60238 34.3864C9.62214 34.3222 9.6172 34.2432 9.60238 34.179C9.58756 34.1345 9.61226 34.0506 9.60238 33.9765C9.5925 33.9024 9.5925 33.8283 9.60238 33.7739C9.60732 33.6998 9.58262 33.6307 9.60238 33.5714C9.61226 33.4924 9.57769 33.4232 9.60238 33.364C9.60732 33.2701 9.64684 33.1911 9.70611 33.1516C9.78021 33.0923 9.86418 33.0528 9.93333 33.0725C10.0321 33.0923 10.0963 33.1022 10.1556 33.1516C10.2248 33.2108 10.2248 33.2899 10.2544 33.364C10.2346 33.443 10.2346 33.5072 10.2544 33.5714C10.2742 33.6504 10.2445 33.7196 10.2544 33.7739C10.2643 33.8283 10.2643 33.9369 10.2544 33.9765C10.2297 34.0604 10.2593 34.1246 10.2544 34.179C10.2643 34.2432 10.2495 34.337 10.2544 34.3864C10.2692 34.4556 10.2445 34.5247 10.2544 34.589C10.2593 34.6482 10.2495 34.7371 10.2544 34.7915C10.2643 34.8853 10.2346 34.9298 10.2544 34.994C10.2297 35.0681 10.2692 35.1471 10.2544 35.2015C10.2593 35.2854 10.2495 35.325 10.2544 35.404C10.2495 35.4583 10.2297 35.567 10.2544 35.6065C10.2742 35.6658 10.2544 35.7646 10.2544 35.809C10.2346 35.893 10.2396 35.9523 10.2544 36.0165C10.2297 36.0906 10.2742 36.14 10.2544 36.219C10.2742 36.2783 10.2643 36.3474 10.2544 36.4215C10.2742 36.5104 10.2495 36.5598 10.2544 36.629Z" fill="#004B88"/>
<path d="M13.9051 36.4358C13.8853 36.5247 13.9051 36.584 13.8754 36.6383C13.8507 36.7025 13.8211 36.7865 13.7618 36.8161C13.6976 36.8803 13.5939 36.9001 13.4704 36.9198C13.4012 36.91 13.2975 36.9001 13.253 36.8853C13.1938 36.8853 13.1246 36.8112 13.0752 36.7667C13.0209 36.7074 12.9764 36.6432 12.9517 36.5988C12.9221 36.5296 12.8727 36.4654 12.8628 36.416C12.8332 36.337 12.7838 36.2678 12.764 36.1888C12.7097 36.1246 12.7097 36.0554 12.6652 35.9616C12.6356 35.9023 12.5862 35.8282 12.5664 35.7344C12.5072 35.6504 12.4973 35.601 12.4627 35.5071C12.4479 35.4182 12.3985 35.3441 12.3639 35.2799C12.3145 35.2108 12.2997 35.1466 12.2651 35.0478C12.2306 34.9984 12.1713 34.9144 12.1663 34.8205C12.1318 34.7366 12.0922 34.6477 12.0626 34.5933C12.0083 34.534 11.9836 34.4451 11.9638 34.3612C11.9095 34.292 11.9095 34.1932 11.8749 34.1241C11.8502 34.0747 11.8502 34.045 11.8107 33.9808C11.786 33.9413 11.7119 33.9364 11.7119 34.0055C11.7119 34.0747 11.6971 34.1092 11.707 34.1636C11.7168 34.2179 11.702 34.2723 11.707 34.3266C11.7218 34.4204 11.6921 34.4649 11.7119 34.534C11.6921 34.6081 11.7317 34.6872 11.7168 34.7415C11.6921 34.8205 11.7119 34.8897 11.7168 34.9786C11.7218 35.0478 11.7317 35.1317 11.7168 35.2157C11.7317 35.2997 11.7267 35.3836 11.7168 35.4528C11.7168 35.517 11.7119 35.6158 11.7168 35.6899C11.7119 35.7788 11.6971 35.8282 11.7168 35.927C11.7218 36.006 11.6971 36.09 11.7168 36.1641C11.702 36.2579 11.707 36.3123 11.7168 36.4012C11.7267 36.495 11.7168 36.5444 11.7168 36.6482C11.7317 36.7371 11.6921 36.7914 11.623 36.8458C11.5588 36.9149 11.5094 36.9248 11.4155 36.9198C11.3167 36.9248 11.2772 36.8902 11.2031 36.8458C11.1636 36.7766 11.134 36.7321 11.1142 36.6482C11.1241 36.5247 11.1142 36.3913 11.1093 36.253C11.1241 36.1098 11.1241 36.0011 11.1093 35.8677C11.0895 35.7195 11.0895 35.6059 11.1093 35.4824C11.0945 35.3787 11.1093 35.2058 11.1093 35.0922C11.0994 34.9539 11.1043 34.8304 11.1093 34.7069C11.1093 34.6032 11.129 34.4748 11.1093 34.3216C11.1192 34.1735 11.1142 34.0846 11.1093 33.9364C11.0945 33.8079 11.0846 33.6943 11.1093 33.5511C11.1192 33.477 11.1043 33.4177 11.1389 33.3486C11.1735 33.3041 11.1883 33.2251 11.2426 33.1806C11.2624 33.1559 11.3266 33.1263 11.3859 33.1016C11.4501 33.0917 11.5094 33.0917 11.5489 33.0769C11.6576 33.0818 11.7168 33.1016 11.8058 33.1164C11.865 33.151 11.9638 33.1905 12.0182 33.2547C12.0577 33.314 12.0972 33.3634 12.1367 33.4177C12.1663 33.4671 12.2207 33.5313 12.2256 33.5955C12.2454 33.6696 12.2997 33.724 12.3096 33.7931C12.3244 33.8573 12.354 33.9364 12.3985 33.9956C12.4331 34.05 12.4331 34.129 12.4825 34.1932C12.5269 34.2525 12.5368 34.3414 12.5714 34.3957C12.601 34.4748 12.6158 34.534 12.6554 34.5933C12.6801 34.6674 12.7294 34.7464 12.7443 34.7958C12.7739 34.8798 12.8233 34.9539 12.8332 34.9984C12.848 35.0576 12.8776 35.1416 12.9172 35.1959C12.9567 35.2947 12.9764 35.3441 13.0159 35.433C13.0406 35.4973 13.0555 35.6158 13.1098 35.6701C13.1592 35.7393 13.1493 35.7838 13.1789 35.848C13.1987 35.8875 13.2036 35.9517 13.2283 35.9863C13.2481 36.011 13.2975 36.011 13.3074 35.9715C13.3123 35.9418 13.3173 35.8825 13.3173 35.848C13.3123 35.7689 13.3222 35.6998 13.3074 35.6158C13.3271 35.5516 13.3123 35.4429 13.3173 35.354C13.3024 35.2849 13.3222 35.191 13.3173 35.0922C13.3173 35.028 13.3222 34.9539 13.3024 34.8749C13.2975 34.8304 13.3123 34.7514 13.3024 34.6575C13.2975 34.5933 13.3024 34.5093 13.3024 34.4451C13.3024 34.3809 13.2926 34.3068 13.3024 34.2229C13.3123 34.1389 13.3123 34.1043 13.3024 34.0055C13.2777 33.9512 13.3024 33.8722 13.2975 33.7882C13.3074 33.7141 13.2926 33.6647 13.2975 33.5758C13.3123 33.5017 13.2876 33.4276 13.3024 33.3486C13.2926 33.2893 13.3123 33.2103 13.3913 33.151C13.4457 33.1016 13.5247 33.067 13.6037 33.0769C13.6976 33.1016 13.7618 33.1016 13.8161 33.151C13.8754 33.2152 13.8853 33.2843 13.9051 33.3486C13.8853 33.4029 13.9051 33.5017 13.9051 33.5461C13.9149 33.6252 13.8853 33.6993 13.9051 33.7388C13.9001 33.8623 13.8952 33.9759 13.9051 34.1241C13.9001 34.2723 13.8853 34.371 13.9051 34.5093C13.91 34.6328 13.9001 34.7563 13.9051 34.8946C13.9051 35.0428 13.9001 35.1614 13.9051 35.2799C13.9149 35.433 13.9199 35.5368 13.9051 35.6652C13.91 35.7739 13.8853 35.9221 13.9051 36.0505C13.9199 36.174 13.8804 36.3222 13.9051 36.4358Z" fill="#004B88"/>
<path d="M16.9427 35.0181C16.9476 35.112 16.9279 35.1367 16.9032 35.2108C16.8587 35.2948 16.8488 35.3343 16.7945 35.3738C16.75 35.4133 16.7007 35.4775 16.6364 35.4825C16.5821 35.5319 16.508 35.522 16.4389 35.522C16.3549 35.5417 16.3154 35.5121 16.2462 35.4825C16.1771 35.4479 16.1227 35.4034 16.0832 35.3738C16.0437 35.3145 15.9795 35.2602 15.9745 35.2108C15.9597 35.1416 15.9103 35.0774 15.935 35.0181C15.9498 34.9638 15.9449 34.8798 15.9745 34.8206C15.9795 34.7662 16.0585 34.702 16.0832 34.6625C16.1474 34.5983 16.2067 34.5785 16.2462 34.5538C16.3252 34.5341 16.3845 34.5094 16.4389 34.5143C16.5179 34.5341 16.5623 34.5242 16.6315 34.5538C16.7007 34.5835 16.7254 34.6329 16.7945 34.6625C16.839 34.707 16.8785 34.7514 16.9032 34.8255C16.9427 34.8749 16.9575 34.9292 16.9427 35.0181Z" fill="#004B88"/>
<path d="M21.2651 36.0355C21.2255 36.1195 21.2354 36.1837 21.2058 36.243C21.186 36.3072 21.1416 36.3961 21.107 36.4356C21.0823 36.5048 21.0082 36.5591 20.9687 36.6085C20.8847 36.6875 20.8551 36.7271 20.7612 36.7666C20.6822 36.8357 20.5933 36.8654 20.5291 36.8752C20.4303 36.9098 20.3463 36.9296 20.2821 36.9345C20.2129 36.9592 20.0993 36.9642 20.0252 36.9543C19.9264 36.9493 19.7684 36.9592 19.6795 36.9246C19.6152 36.9197 19.5807 36.9246 19.5115 36.8851C19.4522 36.8851 19.4177 36.8802 19.3485 36.8308C19.2843 36.8061 19.23 36.7962 19.1904 36.7567C19.1559 36.7419 19.0966 36.7122 19.0472 36.6678C19.0176 36.6184 18.9731 36.5986 18.9138 36.5542C18.8546 36.4949 18.82 36.4653 18.7953 36.4208C18.7558 36.3566 18.7163 36.2578 18.7113 36.1936C18.7064 36.1393 18.7508 36.0306 18.8101 35.996C18.8447 35.9713 18.9533 35.9268 19.0176 35.917C19.1015 35.917 19.1855 35.9417 19.2349 36.0158C19.2892 36.0602 19.3139 36.1195 19.3831 36.1788C19.4424 36.2183 19.4621 36.2627 19.5461 36.3072C19.6054 36.3763 19.7042 36.3912 19.7783 36.406C19.8523 36.4109 19.9413 36.4159 20.0351 36.4307C20.1388 36.4109 20.2376 36.4159 20.3018 36.3862C20.4056 36.3615 20.4747 36.3072 20.5192 36.243C20.5883 36.1985 20.6032 36.1146 20.6328 36.0503C20.6377 35.9812 20.6871 35.8923 20.6674 35.8231C20.6772 35.7441 20.6624 35.67 20.613 35.586C20.5883 35.5119 20.5142 35.4625 20.455 35.4082C20.371 35.3687 20.3315 35.3292 20.2524 35.2995C20.1537 35.2847 20.0894 35.2551 20.0252 35.2254C19.966 35.2057 19.9116 35.2106 19.8474 35.176C19.7881 35.1513 19.714 35.1316 19.6548 35.1168C19.5906 35.1168 19.5214 35.0822 19.4621 35.0427C19.4127 35.0377 19.3535 34.9834 19.2794 34.9488C19.23 34.8895 19.1509 34.8698 19.1213 34.8253C19.062 34.7957 18.9929 34.7315 18.978 34.6525C18.9435 34.5833 18.9089 34.5092 18.8891 34.4598C18.8595 34.3907 18.8397 34.3067 18.8397 34.2523C18.8249 34.203 18.8052 34.0992 18.8249 34.035C18.8299 33.9856 18.82 33.9313 18.8397 33.8473C18.8249 33.7782 18.8694 33.7485 18.8891 33.6744C18.9287 33.6053 18.9385 33.5509 18.9731 33.5065C18.9929 33.462 19.0472 33.4274 19.0867 33.3583C19.1312 33.3138 19.2003 33.2447 19.2794 33.2101C19.3584 33.1805 19.4177 33.1212 19.4918 33.1163C19.5708 33.0817 19.6301 33.0718 19.7239 33.057C19.7832 33.057 19.8919 33.057 19.961 33.0422C20.0647 33.0273 20.1537 33.057 20.2574 33.0669C20.3512 33.0916 20.4303 33.0866 20.5389 33.141C20.6328 33.1755 20.697 33.22 20.7958 33.2694C20.8551 33.2842 20.8699 33.3385 20.9193 33.3534C20.9539 33.4027 20.9884 33.4126 21.0329 33.462C21.0971 33.5312 21.107 33.6003 21.1317 33.6744C21.1267 33.7535 21.1169 33.8325 21.0428 33.8918C21.0033 33.951 20.8995 33.9757 20.8205 33.9807C20.7415 33.9856 20.6525 33.9659 20.5982 33.8918C20.5488 33.8325 20.4846 33.8127 20.4648 33.7584C20.3957 33.7189 20.3661 33.6744 20.3216 33.6547C20.2771 33.6151 20.2327 33.6003 20.1635 33.5855C20.1191 33.5756 20.0549 33.5707 19.9808 33.5608C19.8968 33.5855 19.8425 33.5509 19.7783 33.5904C19.7042 33.5954 19.6498 33.63 19.6054 33.6695C19.556 33.7337 19.5362 33.7782 19.4868 33.8078C19.4621 33.8424 19.4424 33.9461 19.4374 34.0054C19.4275 34.1042 19.4275 34.1733 19.4819 34.2425C19.5016 34.3215 19.5461 34.3758 19.6251 34.4252C19.7091 34.4647 19.7684 34.4944 19.8276 34.529C19.9215 34.5833 19.9709 34.5784 20.0499 34.5981C20.1191 34.6426 20.1685 34.6327 20.2277 34.6475C20.2969 34.6524 20.3512 34.7167 20.45 34.7167C20.5439 34.7315 20.5933 34.7908 20.6674 34.8056C20.7168 34.85 20.7909 34.8797 20.8699 34.9192C20.9094 34.9735 21.0131 35.0032 21.0477 35.0674C21.0971 35.1118 21.1267 35.1909 21.1663 35.2353C21.2058 35.3193 21.2008 35.3539 21.2354 35.4181C21.2305 35.4872 21.2799 35.5613 21.2749 35.6157C21.2848 35.6996 21.2799 35.7391 21.2848 35.8132C21.2947 35.8725 21.2897 35.9861 21.2651 36.0355Z" fill="#004B88"/>
<path d="M22.5737 36.629C22.5688 36.713 22.5392 36.8118 22.4749 36.8414C22.4305 36.9155 22.3416 36.9155 22.2527 36.9155C22.1736 36.9402 22.0847 36.876 22.0255 36.8414C21.9464 36.8167 21.9365 36.7278 21.9217 36.629C21.9118 36.5796 21.897 36.4956 21.9217 36.4166C21.9118 36.3623 21.9118 36.2832 21.9217 36.219C21.9168 36.14 21.9415 36.0758 21.9217 36.0165C21.9415 35.9523 21.9118 35.893 21.9217 35.809C21.902 35.7498 21.9316 35.6757 21.9217 35.6065C21.897 35.5571 21.9118 35.483 21.9217 35.404C21.9316 35.3447 21.9365 35.2805 21.9217 35.2015C21.9316 35.1274 21.9069 35.0681 21.9217 34.994C21.9365 34.9446 21.9168 34.8557 21.9217 34.7915C21.902 34.7273 21.9415 34.6532 21.9217 34.589C21.9365 34.5 21.9415 34.4507 21.9217 34.3864C21.9415 34.3222 21.9365 34.2432 21.9217 34.179C21.9069 34.1345 21.9316 34.0506 21.9217 33.9765C21.9118 33.9024 21.9118 33.8283 21.9217 33.7739C21.9267 33.6998 21.902 33.6307 21.9217 33.5714C21.9316 33.4924 21.897 33.4232 21.9217 33.364C21.9267 33.2701 21.9662 33.1911 22.0255 33.1516C22.0995 33.0923 22.1835 33.0528 22.2527 33.0725C22.3515 33.0923 22.4157 33.1022 22.4749 33.1516C22.5441 33.2108 22.5441 33.2899 22.5737 33.364C22.554 33.443 22.554 33.5072 22.5737 33.5714C22.5935 33.6504 22.5639 33.7196 22.5737 33.7739C22.5836 33.8283 22.5836 33.9369 22.5737 33.9765C22.549 34.0604 22.5787 34.1246 22.5737 34.179C22.5836 34.2432 22.5688 34.337 22.5737 34.3864C22.5886 34.4556 22.5639 34.5247 22.5737 34.589C22.5787 34.6482 22.5688 34.7371 22.5737 34.7915C22.5836 34.8853 22.554 34.9298 22.5737 34.994C22.549 35.0681 22.5886 35.1471 22.5737 35.2015C22.5787 35.2854 22.5688 35.325 22.5737 35.404C22.5688 35.4583 22.549 35.567 22.5737 35.6065C22.5935 35.6658 22.5737 35.7646 22.5737 35.809C22.554 35.893 22.5589 35.9523 22.5737 36.0165C22.549 36.0906 22.5935 36.14 22.5737 36.219C22.5935 36.2783 22.5836 36.3474 22.5737 36.4215C22.5935 36.5104 22.5688 36.5598 22.5737 36.629Z" fill="#004B88"/>
<path d="M26.4808 35.1814C26.4758 35.2456 26.4561 35.3197 26.461 35.3888C26.4264 35.4679 26.4462 35.537 26.4166 35.5914C26.4067 35.6753 26.3721 35.7396 26.3573 35.7889C26.3079 35.8433 26.3079 35.9371 26.2782 35.9766C26.2634 36.031 26.214 36.0903 26.1745 36.1594C26.1251 36.2236 26.1054 36.2928 26.056 36.3224C26.0115 36.4014 25.9374 36.441 25.9078 36.4755C25.8683 36.5002 25.8189 36.5546 25.7794 36.5842C25.73 36.6237 25.6707 36.6237 25.641 36.6731C25.5966 36.7028 25.5274 36.7324 25.4978 36.7472C25.4286 36.7867 25.3842 36.7818 25.3447 36.8065C25.2162 36.8608 25.1224 36.8806 25.0236 36.8855C24.9248 36.9152 24.8211 36.925 24.6927 36.9102C24.6235 36.925 24.5198 36.9053 24.4407 36.9102C24.337 36.9152 24.2925 36.9053 24.1888 36.9102C24.0653 36.9349 23.9764 36.9152 23.8579 36.8806C23.8184 36.8756 23.7393 36.8658 23.6949 36.8262C23.6257 36.8065 23.6109 36.767 23.5664 36.7275C23.5121 36.6484 23.4479 36.5694 23.4528 36.4904C23.438 36.4311 23.4281 36.2977 23.4281 36.2286C23.4429 36.11 23.4429 36.031 23.4281 35.9223C23.4084 35.7988 23.4084 35.7099 23.4281 35.6161C23.4133 35.537 23.4281 35.3888 23.4281 35.3049C23.4183 35.1913 23.4232 35.0925 23.4281 34.9937C23.4281 34.9146 23.4479 34.8109 23.4281 34.6825C23.438 34.559 23.4331 34.4997 23.4281 34.3762C23.4133 34.2725 23.4034 34.1836 23.4281 34.065C23.4034 33.9663 23.4232 33.8526 23.4281 33.7588C23.4183 33.6551 23.4232 33.5513 23.4578 33.4772C23.4874 33.3735 23.5022 33.2895 23.5961 33.2303C23.6553 33.1858 23.6949 33.1512 23.7245 33.1463C23.764 33.1364 23.8381 33.1068 23.8776 33.1018C23.9665 33.1018 24.0999 33.0821 24.1888 33.0771C24.2876 33.0574 24.3765 33.0771 24.4407 33.0771C24.5494 33.0821 24.6284 33.0722 24.6976 33.0771C24.7667 33.0574 24.8063 33.0771 24.8853 33.0821C24.9643 33.0821 24.989 33.1117 25.073 33.1018C25.1175 33.1265 25.2162 33.1315 25.2558 33.1414C25.315 33.1809 25.3595 33.1908 25.4385 33.1908C25.4731 33.2204 25.5324 33.2401 25.6065 33.2599C25.6806 33.2994 25.7053 33.3291 25.7695 33.3538C25.8287 33.3686 25.8831 33.4476 25.9226 33.4624C25.9424 33.5168 26.0214 33.5612 26.056 33.5958C26.1004 33.6353 26.135 33.6748 26.1745 33.744C26.2041 33.7934 26.2288 33.8279 26.2684 33.902C26.2881 33.9761 26.3029 34.0058 26.3425 34.07C26.3672 34.1243 26.377 34.1737 26.4017 34.2429C26.4166 34.3219 26.4264 34.3713 26.4412 34.4256C26.4659 34.5096 26.4758 34.5442 26.4709 34.6084C26.4956 34.722 26.4758 34.8554 26.4906 34.9739C26.5005 35.053 26.4906 35.0925 26.4808 35.1814ZM25.8337 35.2555C25.8633 35.1567 25.8584 35.0628 25.8485 34.9739C25.8238 34.8801 25.8584 34.7912 25.8337 34.6726C25.8287 34.5936 25.7991 34.4602 25.7744 34.3713C25.7448 34.2626 25.6855 34.2083 25.6608 34.0996C25.641 34.0453 25.6262 34.0157 25.5818 33.9761C25.5669 33.9416 25.5274 33.907 25.478 33.8625C25.4385 33.8131 25.3644 33.7983 25.315 33.744C25.2706 33.7193 25.1817 33.6946 25.1323 33.6699C25.0681 33.6353 24.994 33.6501 24.9297 33.6254C24.8754 33.6402 24.7766 33.6106 24.7272 33.6106C24.5988 33.6057 24.4803 33.6205 24.337 33.6106C24.2234 33.6007 24.1394 33.6254 24.1098 33.6699C24.0752 33.7242 24.0604 33.8131 24.0752 33.8576C24.0604 33.9514 24.0604 34.0552 24.0752 34.1391C24.0801 34.2231 24.0555 34.3318 24.0752 34.4256C24.09 34.5096 24.0703 34.6282 24.0752 34.7072C24.0752 34.8208 24.0604 34.9048 24.0752 34.9937C24.0703 35.0925 24.09 35.2061 24.0752 35.2802C24.0752 35.3888 24.0801 35.4778 24.0752 35.5667C24.0653 35.6556 24.0653 35.7642 24.0752 35.8482C24.09 35.952 24.0801 36.0458 24.0752 36.1298C24.0703 36.2137 24.0851 36.273 24.1246 36.3274C24.1691 36.3817 24.2679 36.3767 24.337 36.3767C24.4852 36.3817 24.5988 36.3767 24.7272 36.3767C24.8211 36.4014 24.8754 36.3718 24.9544 36.357C25.0187 36.3619 25.0681 36.3274 25.1619 36.2928C25.2212 36.273 25.2854 36.2286 25.3595 36.1841C25.4138 36.1347 25.4929 36.0903 25.5225 36.0359C25.6065 35.952 25.6361 35.9026 25.6806 35.8038C25.7003 35.7346 25.7398 35.6309 25.7794 35.537C25.7794 35.4531 25.8436 35.3394 25.8337 35.2555Z" fill="#004B88"/>
<path d="M29.6472 36.6034C29.6522 36.6972 29.6324 36.7466 29.5781 36.7911C29.5237 36.8256 29.4644 36.8503 29.4002 36.8701C29.2669 36.8948 29.1286 36.8899 29.0199 36.8701C28.8766 36.88 28.7482 36.875 28.6445 36.8701C28.5408 36.88 28.3827 36.88 28.2691 36.8701C28.1555 36.8553 28.032 36.8948 27.8986 36.8701C27.8146 36.875 27.6912 36.8652 27.5677 36.8454C27.4985 36.8503 27.4294 36.8158 27.4096 36.7861C27.3454 36.7713 27.3009 36.7269 27.2762 36.6873C27.1923 36.6231 27.2021 36.5342 27.1626 36.4502C27.1577 36.3465 27.1577 36.2774 27.1379 36.1884C27.1379 36.0896 27.1231 35.9909 27.1379 35.8921C27.1182 35.8032 27.1478 35.7093 27.1379 35.5957C27.1429 35.5117 27.1281 35.4129 27.1379 35.2944C27.1132 35.1857 27.1379 35.1166 27.1379 34.9931C27.1527 34.8844 27.1379 34.7856 27.1379 34.6967C27.1231 34.6028 27.1429 34.5189 27.1379 34.3954C27.1379 34.3213 27.1132 34.2126 27.1379 34.099C27.1379 33.9854 27.133 33.8767 27.1379 33.7977C27.1478 33.7039 27.128 33.6149 27.1676 33.5162C27.2071 33.4371 27.2268 33.3334 27.3059 33.2692C27.3503 33.2346 27.3701 33.2148 27.4343 33.1852C27.4689 33.1803 27.5282 33.1407 27.5874 33.1407C27.701 33.1309 27.8146 33.1309 27.8986 33.116C28.0221 33.1407 28.1407 33.116 28.2394 33.116C28.3382 33.1358 28.4469 33.116 28.5803 33.116C28.7087 33.1111 28.7828 33.1309 28.9211 33.116C29.015 33.1309 29.173 33.1259 29.2718 33.121C29.3261 33.1259 29.4249 33.1457 29.4496 33.2C29.4793 33.2544 29.5188 33.3186 29.5188 33.3828C29.5188 33.447 29.5138 33.5162 29.4496 33.5705C29.4249 33.6199 29.336 33.6594 29.2718 33.6495C29.1631 33.6446 29.0495 33.6298 28.9606 33.6495C28.8519 33.6693 28.7334 33.6396 28.6544 33.6495C28.5556 33.6446 28.442 33.6396 28.3481 33.6495C28.2444 33.6693 28.1407 33.6594 28.0419 33.6495C27.948 33.6446 27.8591 33.6742 27.8146 33.7137C27.7751 33.7582 27.7702 33.8273 27.7702 33.9014C27.7702 33.9459 27.7751 34.0299 27.7801 34.099C27.7751 34.183 27.785 34.2373 27.7801 34.3658C27.7751 34.4991 27.7801 34.5535 27.8295 34.593C27.8887 34.6374 27.9628 34.6522 28.0023 34.6424C28.1456 34.6522 28.2938 34.6325 28.3728 34.6424C28.4963 34.6374 28.5852 34.6374 28.6791 34.6424C28.7976 34.6671 28.8816 34.6424 28.9903 34.6473C29.0643 34.6424 29.1286 34.6967 29.1681 34.7263C29.2224 34.7955 29.2372 34.835 29.2372 34.9091C29.2422 35.0079 29.2125 35.0326 29.1681 35.0968C29.1039 35.1709 29.0742 35.1808 28.9903 35.1758C28.8816 35.161 28.7532 35.2005 28.6791 35.1758C28.5951 35.166 28.4765 35.1956 28.3728 35.1758C28.2543 35.1907 28.1308 35.1808 27.9776 35.1758C27.8492 35.1857 27.7899 35.2154 27.7801 35.2993C27.7603 35.4475 27.7949 35.5463 27.7801 35.6253C27.7652 35.7192 27.785 35.7982 27.7801 35.8575C27.7702 35.9563 27.7751 36.0007 27.7801 36.0896C27.7751 36.1539 27.7899 36.2329 27.8295 36.2872C27.8739 36.3416 27.9727 36.3267 28.0419 36.3366C28.1308 36.3514 28.2691 36.3465 28.3778 36.3366C28.5012 36.3317 28.6 36.3564 28.7186 36.3366C28.847 36.3416 28.931 36.3416 29.0545 36.3366C29.173 36.3267 29.2767 36.3514 29.4002 36.3416C29.4793 36.3317 29.5188 36.3613 29.5781 36.4206C29.6324 36.4552 29.6423 36.5144 29.6472 36.6034Z" fill="#004B88"/>
</svg>
