<svg width="94" height="95" viewBox="0 0 94 95" fill="none" xmlns="http://www.w3.org/2000/svg">
<path d="M75.6534 36.7978C72.8022 34.2941 68.9576 36.484 67.1921 39.1169C66.1433 40.6824 65.4513 42.5278 64.6731 44.2348C63.938 44.3579 63.1998 44.4686 62.4647 44.5578C59.7612 44.89 57.0361 45.0068 54.3141 44.9392C53.6344 44.9207 52.9546 44.893 52.2749 44.8531C47.5691 45.0191 41.1101 46.557 38.9571 43.7889C36.4965 40.7131 44.8009 43.4813 47.5475 41.3098C47.7321 41.1253 47.9627 40.6178 48.0089 39.8335C48.1012 39.5105 47.9627 38.5878 47.5475 38.311C47.1323 38.0342 46.9016 37.7574 46.1173 37.6651C45.5176 37.4344 44.9178 37.619 43.9951 37.619C43.4414 37.8035 42.5649 37.619 41.9651 37.619C41.4576 37.5728 40.5349 37.6651 39.4738 37.619C38.0897 37.5728 37.9974 37.0192 37.9974 35.912C38.0897 35.1277 37.6283 34.4356 37.1209 34.1588C36.5672 33.8359 36.1059 33.8359 35.5061 33.7897C34.9525 33.7436 33.9375 33.7436 33.6607 34.1588C33.0609 34.6663 32.8764 35.1277 32.7841 35.6813C32.9225 36.5579 32.6918 37.3422 32.7841 38.1265C32.8302 38.9108 32.738 39.6028 32.7841 40.4794C32.5534 41.4482 32.738 42.0941 32.7841 43.3736C32.495 45.0161 30.342 45.6312 29.001 44.4932C28.8164 44.0318 28.678 43.8934 28.678 42.8323C28.678 42.048 28.5396 41.3098 28.6319 40.6178C28.4935 39.8335 28.678 39.5567 28.6319 38.9108C28.678 38.4956 28.1244 37.8497 27.8014 37.4344C27.294 37.0192 26.7865 36.8808 26.0944 36.9731C25.4485 36.7885 24.8488 37.0192 24.3874 37.4344C23.6492 37.8958 23.6031 38.4494 23.557 38.8646C23.557 39.4644 23.557 40.018 23.6031 40.5255C23.7876 41.356 23.5108 42.2326 23.6954 42.9707C23.8799 43.6628 23.6031 44.1702 23.3263 44.5393C23.0495 45.1391 22.0806 45.1852 21.8961 45.093C20.7888 45.093 19.7277 45.1391 19.0357 45.1391C18.2514 45.0468 17.9284 45.4159 17.6055 45.8311C17.1902 46.0618 17.098 46.7538 17.1441 47.3536C17.098 47.9995 17.2825 48.6454 17.6055 48.8761C17.9284 49.199 18.482 49.522 19.0357 49.5681C19.5893 49.6143 20.2813 49.522 21.0656 49.6143C21.5731 49.7527 22.1729 49.7065 23.0495 49.6143C23.6492 49.7988 24.5719 49.7065 25.0333 49.6143C25.6331 49.6143 26.5096 49.522 27.0171 49.6081C35.8783 48.4024 45.1054 48.4024 54.1296 49.6173C55.0461 49.6419 55.9627 49.645 56.8792 49.6266C58.7124 49.5897 60.5424 49.4666 62.3694 49.2544C62.2064 49.6112 62.0434 49.9649 61.8803 50.3217C60.3671 53.6188 58.3279 57.2359 60.4409 60.7514C61.7758 62.969 64.3378 64.0363 65.7004 66.1524C67.186 68.4592 62.6216 70.6521 61.3267 71.9409C58.2141 75.0381 58.3402 79.5379 60.7485 83.0411C62.0157 84.8835 63.7012 86.3167 65.2882 87.8638C66.6046 89.1464 68.1087 90.7212 68.2994 92.6527C68.4224 93.9138 69.2897 94.9995 70.6461 94.9995C71.8211 94.9995 73.119 93.923 72.9929 92.6527C72.6792 89.4601 71.0367 86.9503 68.7945 84.7297C66.8507 82.8012 63.8334 80.762 63.5966 77.7693C63.3813 75.032 66.9983 73.6633 68.5669 71.9593C70.5139 69.8494 71.3812 67.0136 70.0587 64.3377C69.0898 62.3785 67.2352 61.1543 65.6789 59.7088C65.0975 59.1705 64.4024 58.5523 64.2148 57.7464C63.8826 56.3316 65.1222 54.4647 65.6819 53.2436C66.4109 51.6535 67.1337 50.0572 67.8565 48.4609C69.9972 48.0303 72.0856 47.3598 73.7987 46.1264C76.5423 44.1456 78.7322 39.5013 75.6534 36.7978ZM70.6092 42.6262C71.0737 41.8266 71.5965 41.1899 72.3101 40.4917C72.3255 40.4763 72.3439 40.4702 72.3685 40.464C72.267 40.8239 72.1932 41.1684 71.941 41.5067C71.5842 41.9803 71.1229 42.3402 70.6123 42.6262H70.6092Z" fill="white"/>
<path d="M30.3391 30.0132C30.3391 31.4434 30.4775 32.4584 30.2929 33.1504C30.4313 33.7963 29.9238 34.2577 29.6009 34.5345C29.1857 34.719 28.5859 35.1343 28.0784 34.9958C27.2941 35.1343 27.0173 34.9036 26.5559 34.5345C26.233 34.1654 25.7716 33.9347 25.8178 33.1504C25.9562 32.4122 25.8639 31.5357 25.8178 30.7052C25.8639 29.9209 25.8178 29.5057 25.7255 29.3212C25.5871 29.0905 25.4025 29.1366 25.1719 29.3673C24.8489 29.6902 24.4337 30.29 24.1569 30.5207C23.5571 30.8436 23.2342 31.5818 22.7728 31.7202C22.4037 32.1816 21.7578 32.32 21.481 32.2277C20.9274 32.0432 20.7428 32.0893 20.1431 31.6279C19.6817 31.2589 19.5433 31.0282 19.5895 30.29C19.5895 29.8286 19.9124 28.8598 20.3738 28.5368C20.7428 27.7987 21.2965 27.7064 21.8501 26.9682C22.4037 26.6914 22.6344 25.9994 23.0496 25.6303C23.6033 25.3073 23.9262 24.5692 24.3414 23.9694C24.4798 23.7387 24.526 23.5542 24.4798 23.4158C24.2953 23.139 23.6033 23.0928 22.6805 23.0928C21.5733 23.0006 21.2042 22.816 20.7428 22.4931C20.5583 22.3547 20.3738 21.8933 20.2815 21.2013C20.1431 20.1863 20.9274 19.4481 21.8962 19.2636C22.496 19.1713 23.188 19.3097 24.4337 19.2174C25.0796 19.1252 25.8178 18.8022 25.7716 17.5565C25.7716 16.5416 25.91 15.9879 26.6021 15.7573C27.2018 15.342 27.4787 15.342 28.0784 15.2959C28.3552 15.2959 29.2318 15.5727 29.5086 15.7573C30.0161 15.9418 30.3391 16.3109 30.2929 17.0952C30.2929 18.064 30.4775 18.5715 31.0311 18.8945C31.5847 19.2174 32.5536 19.1713 33.1072 19.2174C33.8915 19.2636 34.3067 19.4481 34.6297 19.8633C34.9065 20.3708 34.9526 20.5092 35.091 21.2013C35.1833 21.6165 34.9988 22.124 34.6297 22.5392C34.4913 22.6776 33.9377 23.1851 33.2456 23.139C31.9077 23.0928 31.3541 23.1851 31.2156 23.5081C31.1695 23.6003 31.2156 23.7387 31.2618 23.8771C31.9077 24.6153 32.4613 24.8921 32.8765 25.1689C33.3379 25.8148 33.707 25.9994 34.1222 26.4146C34.4913 26.876 34.4913 27.3835 34.6297 27.7064C34.2145 28.7214 33.6608 29.4134 32.8765 29.5057C32.4152 29.7364 31.6309 29.2289 31.1695 28.7675C30.5236 28.3523 30.2468 28.6291 30.3391 30.0132Z" fill="white"/>
<path d="M53.2681 29.5518C53.4065 30.5668 53.4065 31.1666 52.8529 31.5818C52.6222 32.0432 51.8379 32.4122 51.3766 32.2738C50.5461 32.4584 49.6695 31.8586 49.1621 31.1204C48.7007 30.7052 48.6084 30.3823 48.1471 30.1977C47.7318 29.8286 47.455 29.5057 47.1782 29.275C46.3939 28.4907 46.1632 28.6291 45.8864 28.9982C45.6096 29.1827 45.7942 30.4745 45.7019 31.0743C45.5635 31.9048 45.748 32.3661 45.6557 32.9659C45.5635 33.7502 45.1483 34.0731 44.9637 34.3499C44.4562 34.719 43.9026 34.8113 43.4412 34.8113C43.0721 34.7652 42.4262 34.5806 41.9188 34.3499C41.6881 34.2577 41.1806 33.5656 41.1806 32.9659C41.3651 32.3661 41.2729 31.3973 41.2729 30.7052C41.2729 29.0905 41.3651 28.6753 41.0422 28.583C40.7192 28.4907 40.5347 28.7675 39.8426 29.5057C39.3352 29.7825 39.2429 30.1516 38.9661 30.4745C38.6431 30.9359 37.9972 31.3973 37.3052 31.9509C36.6593 32.4122 36.3363 32.5045 35.7827 32.5507C35.0445 32.6891 34.7677 32.2738 34.3986 31.9509C33.8911 31.5357 33.845 31.0743 33.7989 30.613C33.7066 29.8748 34.4448 29.0905 35.0907 28.5368C35.5059 27.9832 36.1057 27.8909 36.4747 27.245C36.7054 26.5991 37.4436 26.553 37.8127 25.861C38.0895 25.5842 38.8277 24.846 39.3352 24.0617C39.612 23.7849 39.6581 23.5542 39.4736 23.4158C39.289 23.2312 38.8277 23.139 38.0434 23.139C37.3513 23.139 36.6131 23.0928 36.2441 22.4931C35.7827 21.9394 35.875 21.6165 35.8288 21.2013C35.7366 20.1401 36.5209 19.079 37.4436 19.2636C37.9511 19.1252 38.6893 19.1713 39.8426 19.2174C41.0422 19.1713 41.1806 18.7099 41.1806 17.0952C41.319 16.1725 41.4574 16.1263 41.9649 15.7573C42.5185 15.5727 42.6108 15.342 43.4412 15.2959C43.718 15.2959 44.3639 15.5266 44.8714 15.7573C45.4251 15.8495 45.5173 16.3109 45.6557 17.0952C45.6557 17.8795 45.5173 18.4793 46.0248 18.9406C46.2094 19.2636 46.9475 19.3097 47.3166 19.2174C48.5162 19.4481 49.485 19.0329 50.2693 19.2636C51.2843 19.2636 51.8379 20.1401 51.8379 21.2013C51.7457 22.4008 51.1459 23.0928 50.2693 23.139C48.7468 23.0467 47.9625 23.2312 47.7319 23.6003C47.455 24.0155 47.7319 24.3385 48.9314 25.4458C49.5311 25.7687 49.808 26.3685 50.2693 26.5991C50.7307 27.1528 51.0998 27.4296 51.6995 27.7525C52.207 28.3062 52.8991 28.6291 53.2681 29.5518Z" fill="white"/>
<path d="M45.2897 90.5893C27.6136 91.0753 10.7402 80.1842 3.75834 63.8952C-3.61107 47.437 0.0982385 27.0666 12.7702 14.1701C37.4312 -11.3245 80.2021 -0.799371 91.084 32.8059C92.5357 37.2841 93.3108 41.993 93.4 46.7112C93.4492 49.2794 91.4069 51.4016 88.8356 51.4509C86.1998 51.5062 84.0314 49.3317 84.096 46.6958C84.7726 26.7406 69.068 8.93219 49.2266 6.76688C28.7547 4.08794 8.90708 18.3623 4.65029 38.6067C-0.0986069 59.58 12.4134 81.0454 32.8761 87.6182C34.8692 88.2764 36.9238 88.75 38.9968 89.1222C41.076 89.4728 43.1798 89.6481 45.2928 89.7189C45.8526 89.7189 45.871 90.577 45.2928 90.5893H45.2897Z" fill="white"/>
<path d="M19.1558 68.4227C19.1466 68.5795 19.0912 68.7641 18.9713 68.8194C18.8882 68.9578 18.7222 68.9578 18.5561 68.9578C18.4084 69.004 18.2423 68.884 18.1316 68.8194C17.984 68.7733 17.9655 68.6072 17.9378 68.4227C17.9194 68.3304 17.8917 68.1735 17.9378 68.0259C17.9194 67.9244 17.9194 67.7768 17.9378 67.6568C17.9286 67.5092 17.9748 67.3892 17.9378 67.2785C17.9748 67.1586 17.9194 67.0478 17.9378 66.891C17.9009 66.7802 17.9563 66.6418 17.9378 66.5127C17.8917 66.4204 17.9194 66.282 17.9378 66.1343C17.9563 66.0236 17.9655 65.9037 17.9378 65.756C17.9563 65.6176 17.9102 65.5069 17.9378 65.3685C17.9655 65.2762 17.9286 65.1101 17.9378 64.9902C17.9009 64.8702 17.9748 64.7318 17.9378 64.6119C17.9655 64.4458 17.9748 64.3535 17.9378 64.2336C17.9748 64.1136 17.9655 63.966 17.9378 63.846C17.9102 63.763 17.9563 63.6061 17.9378 63.4677C17.9194 63.3293 17.9194 63.1909 17.9378 63.0894C17.9471 62.951 17.9009 62.8218 17.9378 62.7111C17.9563 62.5634 17.8917 62.4343 17.9378 62.3235C17.9471 62.1482 18.0209 62.0006 18.1316 61.9268C18.27 61.816 18.4269 61.7422 18.5561 61.7791C18.7406 61.816 18.8606 61.8345 18.9713 61.9268C19.1005 62.0375 19.1005 62.1851 19.1558 62.3235C19.1189 62.4712 19.1189 62.5911 19.1558 62.7111C19.1927 62.8587 19.1374 62.9879 19.1558 63.0894C19.1743 63.1909 19.1743 63.3939 19.1558 63.4677C19.1097 63.6246 19.1651 63.7445 19.1558 63.846C19.1743 63.966 19.1466 64.1413 19.1558 64.2336C19.1835 64.3627 19.1374 64.4919 19.1558 64.6119C19.1651 64.7226 19.1466 64.8887 19.1558 64.9902C19.1743 65.1655 19.1189 65.2485 19.1558 65.3685C19.1097 65.5069 19.1835 65.6545 19.1558 65.756C19.1651 65.9129 19.1466 65.9867 19.1558 66.1343C19.1466 66.2358 19.1097 66.4388 19.1558 66.5127C19.1927 66.6234 19.1558 66.8079 19.1558 66.891C19.1189 67.0478 19.1281 67.1586 19.1558 67.2785C19.1097 67.4169 19.1927 67.5092 19.1558 67.6568C19.1927 67.7675 19.1743 67.8967 19.1558 68.0351C19.1927 68.2012 19.1466 68.2935 19.1558 68.4227Z" fill="white"/>
<path d="M25.9748 68.0628C25.9379 68.2289 25.9748 68.3396 25.9194 68.4411C25.8733 68.561 25.8179 68.7179 25.7072 68.7733C25.5872 68.8932 25.3935 68.9301 25.1628 68.967C25.0336 68.9486 24.8398 68.9301 24.7568 68.9024C24.6461 68.9024 24.5169 68.764 24.4246 68.681C24.3231 68.5703 24.2401 68.4503 24.1939 68.3673C24.1386 68.2381 24.0463 68.1181 24.0279 68.0259C23.9725 67.8782 23.8802 67.749 23.8433 67.6014C23.7418 67.4815 23.7418 67.3523 23.6588 67.177C23.6034 67.0662 23.5111 66.9278 23.4742 66.7525C23.3635 66.5957 23.345 66.5034 23.2805 66.3281C23.2528 66.162 23.1605 66.0236 23.0959 65.9036C23.0036 65.7744 22.976 65.6545 22.9114 65.4699C22.8468 65.3777 22.7361 65.2208 22.7268 65.0455C22.6622 64.8886 22.5884 64.7225 22.5331 64.621C22.4316 64.5103 22.3854 64.3442 22.3485 64.1874C22.247 64.0582 22.247 63.8736 22.1824 63.7445C22.1363 63.6522 22.1363 63.5968 22.0625 63.4769C22.0163 63.4031 21.8779 63.3938 21.8779 63.523C21.8779 63.6522 21.8503 63.7168 21.8687 63.8183C21.8872 63.9198 21.8595 64.0213 21.8687 64.1228C21.8964 64.2981 21.841 64.3811 21.8779 64.5103C21.841 64.6487 21.9148 64.7964 21.8872 64.8979C21.841 65.0455 21.8779 65.1747 21.8872 65.3408C21.8964 65.4699 21.9148 65.6268 21.8872 65.7837C21.9148 65.9405 21.9056 66.0974 21.8872 66.2266C21.8872 66.3465 21.8779 66.5311 21.8872 66.6695C21.8779 66.8356 21.8503 66.9278 21.8872 67.1124C21.8964 67.26 21.8503 67.4169 21.8872 67.5553C21.8595 67.7306 21.8687 67.8321 21.8872 67.9982C21.9056 68.1735 21.8872 68.2658 21.8872 68.4595C21.9148 68.6256 21.841 68.7271 21.7118 68.8286C21.5919 68.9578 21.4996 68.9763 21.3243 68.967C21.1398 68.9763 21.0659 68.9117 20.9275 68.8286C20.8537 68.6994 20.7984 68.6164 20.7614 68.4595C20.7799 68.2289 20.7614 67.9797 20.7522 67.7214C20.7799 67.4538 20.7799 67.2508 20.7522 67.0016C20.7153 66.7248 20.7153 66.5126 20.7522 66.2819C20.7245 66.0882 20.7522 65.7652 20.7522 65.553C20.7338 65.2946 20.743 65.0639 20.7522 64.8333C20.7522 64.6395 20.7891 64.3996 20.7522 64.1136C20.7707 63.8367 20.7614 63.6706 20.7522 63.3938C20.7245 63.1539 20.7061 62.9417 20.7522 62.6741C20.7707 62.5357 20.743 62.425 20.8076 62.2958C20.8722 62.2128 20.8999 62.0651 21.0014 61.9821C21.0383 61.9359 21.1582 61.8806 21.2689 61.8344C21.3889 61.816 21.4996 61.816 21.5734 61.7883C21.7764 61.7975 21.8872 61.8344 22.0532 61.8621C22.164 61.9267 22.3485 62.0005 22.45 62.1205C22.5238 62.2312 22.5976 62.3235 22.6715 62.425C22.7268 62.5173 22.8283 62.6372 22.8376 62.7572C22.8745 62.8956 22.976 62.9971 22.9944 63.1262C23.0221 63.2462 23.0775 63.3938 23.1605 63.5046C23.2251 63.6061 23.2251 63.7537 23.3174 63.8736C23.4004 63.9844 23.4189 64.1505 23.4835 64.252C23.5388 64.3996 23.5665 64.5103 23.6403 64.621C23.6865 64.7595 23.7787 64.9071 23.8064 64.9994C23.8618 65.1562 23.954 65.2946 23.9725 65.3777C24.0002 65.4884 24.0555 65.6453 24.1294 65.7468C24.2032 65.9313 24.2401 66.0236 24.3139 66.1897C24.36 66.3096 24.3877 66.5311 24.4892 66.6326C24.5815 66.7617 24.563 66.8448 24.6184 66.9647C24.6553 67.0386 24.6645 67.1585 24.7107 67.2231C24.7476 67.2692 24.8398 67.2692 24.8583 67.1954C24.8675 67.1401 24.8768 67.0293 24.8768 66.9647C24.8675 66.8171 24.886 66.6879 24.8583 66.5311C24.8952 66.4111 24.8675 66.2081 24.8768 66.042C24.8491 65.9128 24.886 65.7375 24.8768 65.553C24.8768 65.433 24.886 65.2946 24.8491 65.147C24.8398 65.0639 24.8675 64.9163 24.8491 64.741C24.8398 64.621 24.8491 64.4642 24.8491 64.3442C24.8491 64.2243 24.8306 64.0859 24.8491 63.929C24.8675 63.7721 24.8675 63.7076 24.8491 63.523C24.8029 63.4215 24.8491 63.2739 24.8398 63.117C24.8583 62.9786 24.8306 62.8863 24.8398 62.7203C24.8675 62.5818 24.8214 62.4434 24.8491 62.2958C24.8306 62.1851 24.8675 62.0374 25.0152 61.9267C25.1167 61.8344 25.2643 61.7699 25.4119 61.7883C25.5872 61.8344 25.7072 61.8344 25.8087 61.9267C25.9194 62.0467 25.9379 62.1759 25.9748 62.2958C25.9379 62.3973 25.9748 62.5818 25.9748 62.6649C25.9932 62.8125 25.9379 62.9509 25.9748 63.0248C25.9656 63.2554 25.9563 63.4677 25.9748 63.7445C25.9656 64.0213 25.9379 64.2058 25.9748 64.4642C25.984 64.6949 25.9656 64.9255 25.9748 65.1839C25.9748 65.4607 25.9656 65.6822 25.9748 65.9036C25.9932 66.1897 26.0025 66.3834 25.9748 66.6233C25.984 66.8263 25.9379 67.1031 25.9748 67.3431C26.0025 67.5737 25.9286 67.8505 25.9748 68.0628Z" fill="white"/>
<path d="M31.6494 65.414C31.6587 65.5894 31.6218 65.6355 31.5756 65.7739C31.4926 65.9308 31.4741 66.0046 31.3726 66.0784C31.2896 66.1522 31.1973 66.2722 31.0774 66.2814C30.9759 66.3737 30.8374 66.3552 30.7083 66.3552C30.5514 66.3921 30.4776 66.3368 30.3484 66.2814C30.2192 66.2168 30.1177 66.1338 30.0439 66.0784C29.9701 65.9677 29.8501 65.8662 29.8409 65.7739C29.8132 65.6447 29.721 65.5248 29.7671 65.414C29.7948 65.3125 29.7856 65.1557 29.8409 65.045C29.8501 64.9435 29.9978 64.8235 30.0439 64.7497C30.1639 64.6297 30.2746 64.5928 30.3484 64.5467C30.496 64.5098 30.6068 64.4636 30.7083 64.4729C30.8559 64.5098 30.9389 64.4913 31.0681 64.5467C31.1973 64.6021 31.2434 64.6943 31.3726 64.7497C31.4557 64.8327 31.5295 64.9158 31.5756 65.0542C31.6494 65.1465 31.6771 65.248 31.6494 65.414Z" fill="white"/>
<path d="M39.7228 67.3151C39.649 67.4719 39.6674 67.5919 39.6121 67.7026C39.5752 67.8226 39.4921 67.9887 39.4275 68.0625C39.3814 68.1917 39.243 68.2932 39.1692 68.3854C39.0123 68.5331 38.9569 68.6069 38.7816 68.6807C38.634 68.8099 38.4679 68.8652 38.3479 68.8837C38.1634 68.9483 38.0065 68.9852 37.8866 68.9944C37.7574 69.0406 37.5452 69.0498 37.4068 69.0313C37.2222 69.0221 36.927 69.0406 36.7609 68.976C36.6409 68.9667 36.5763 68.976 36.4472 68.9021C36.3364 68.9021 36.2718 68.8929 36.1427 68.8006C36.0227 68.7545 35.9212 68.7361 35.8474 68.6622C35.7828 68.6346 35.6721 68.5792 35.5798 68.4962C35.5244 68.4039 35.4414 68.367 35.3307 68.2839C35.2199 68.1732 35.1554 68.1178 35.1092 68.0348C35.0354 67.9148 34.9616 67.7303 34.9524 67.6103C34.9431 67.5089 35.0262 67.3059 35.1369 67.2413C35.2015 67.1951 35.4045 67.1121 35.5244 67.0936C35.6813 67.0936 35.8382 67.1398 35.9304 67.2782C36.0319 67.3612 36.0781 67.4719 36.2073 67.5827C36.318 67.6565 36.3549 67.7395 36.5117 67.8226C36.6225 67.9518 36.807 67.9794 36.9454 68.0071C37.0838 68.0163 37.2499 68.0256 37.4252 68.0532C37.619 68.0163 37.8035 68.0256 37.9235 67.9702C38.1173 67.9241 38.2465 67.8226 38.3295 67.7026C38.4587 67.6196 38.4864 67.4627 38.5417 67.3428C38.5509 67.2136 38.6432 67.0475 38.6063 66.9183C38.6248 66.7707 38.5971 66.6323 38.5048 66.4754C38.4587 66.337 38.3203 66.2447 38.2095 66.1432C38.0527 66.0694 37.9789 65.9956 37.8312 65.9402C37.6467 65.9126 37.5267 65.8572 37.4068 65.8018C37.2961 65.7649 37.1946 65.7741 37.0746 65.7096C36.9639 65.6634 36.8255 65.6265 36.7147 65.5988C36.5948 65.5988 36.4656 65.5342 36.3549 65.4604C36.2626 65.4512 36.1519 65.3497 36.0135 65.2851C35.9212 65.1744 35.7736 65.1375 35.7182 65.0544C35.6075 64.9991 35.4783 64.8791 35.4506 64.7315C35.386 64.6023 35.3214 64.4639 35.2845 64.3716C35.2292 64.2424 35.1923 64.0856 35.1923 63.9841C35.1646 63.8918 35.1277 63.698 35.1646 63.5781C35.1738 63.4858 35.1554 63.3843 35.1923 63.2275C35.1646 63.0983 35.2476 63.0429 35.2845 62.9045C35.3584 62.7753 35.3768 62.6738 35.4414 62.5908C35.4783 62.5077 35.5798 62.4432 35.6536 62.314C35.7367 62.2309 35.8658 62.1017 36.0135 62.0372C36.1611 61.9818 36.2718 61.8711 36.4102 61.8618C36.5579 61.7973 36.6686 61.7788 36.8439 61.7511C36.9547 61.7511 37.1576 61.7511 37.2868 61.7234C37.4806 61.6957 37.6467 61.7511 37.8405 61.7696C38.0158 61.8157 38.1634 61.8065 38.3664 61.908C38.5417 61.9726 38.6617 62.0556 38.8462 62.1479C38.9569 62.1756 38.9846 62.2771 39.0769 62.3047C39.1415 62.397 39.2061 62.4155 39.2891 62.5077C39.4091 62.6369 39.4275 62.7661 39.4737 62.9045C39.4644 63.0521 39.446 63.1998 39.3076 63.3105C39.2338 63.4212 39.04 63.4674 38.8923 63.4766C38.7447 63.4858 38.5786 63.4489 38.4771 63.3105C38.3849 63.1998 38.2649 63.1629 38.228 63.0614C38.0988 62.9876 38.0435 62.9045 37.9604 62.8676C37.8774 62.7938 37.7943 62.7661 37.6651 62.7384C37.5821 62.72 37.4621 62.7107 37.3237 62.6923C37.1669 62.7384 37.0654 62.6738 36.9454 62.7476C36.807 62.7569 36.7055 62.8215 36.6225 62.8953C36.5302 63.0152 36.4933 63.0983 36.401 63.1536C36.3549 63.2182 36.318 63.412 36.3088 63.5227C36.2903 63.7073 36.2903 63.8364 36.3918 63.9656C36.4287 64.1133 36.5117 64.2148 36.6594 64.307C36.8162 64.3808 36.927 64.4362 37.0377 64.5008C37.213 64.6023 37.3053 64.5931 37.4529 64.63C37.5821 64.713 37.6744 64.6946 37.7851 64.7223C37.9143 64.7315 38.0158 64.8514 38.2003 64.8514C38.3756 64.8791 38.4679 64.9898 38.6063 65.0175C38.6986 65.1006 38.837 65.1559 38.9846 65.2297C39.0584 65.3312 39.2522 65.3866 39.3168 65.5066C39.4091 65.5896 39.4644 65.7372 39.5383 65.8203C39.6121 65.9771 39.6028 66.0417 39.6674 66.1617C39.6582 66.2909 39.7505 66.4293 39.7412 66.5308C39.7597 66.6876 39.7505 66.7614 39.7597 66.8999C39.7782 67.0106 39.7689 67.2228 39.7228 67.3151Z" fill="white"/>
<path d="M42.1685 68.4227C42.1593 68.5795 42.1039 68.7641 41.984 68.8194C41.9009 68.9578 41.7348 68.9578 41.5688 68.9578C41.4211 69.004 41.255 68.884 41.1443 68.8194C40.9967 68.7733 40.9782 68.6072 40.9505 68.4227C40.9321 68.3304 40.9044 68.1735 40.9505 68.0259C40.9321 67.9244 40.9321 67.7768 40.9505 67.6568C40.9413 67.5092 40.9874 67.3892 40.9505 67.2785C40.9874 67.1586 40.9321 67.0478 40.9505 66.891C40.9136 66.7802 40.969 66.6418 40.9505 66.5127C40.9044 66.4204 40.9321 66.282 40.9505 66.1343C40.969 66.0236 40.9782 65.9037 40.9505 65.756C40.969 65.6176 40.9229 65.5069 40.9505 65.3685C40.9782 65.2762 40.9413 65.1101 40.9505 64.9902C40.9136 64.8702 40.9874 64.7318 40.9505 64.6119C40.9782 64.4458 40.9874 64.3535 40.9505 64.2336C40.9874 64.1136 40.9782 63.966 40.9505 63.846C40.9229 63.763 40.969 63.6061 40.9505 63.4677C40.9321 63.3293 40.9321 63.1909 40.9505 63.0894C40.9598 62.951 40.9136 62.8218 40.9505 62.7111C40.969 62.5634 40.9044 62.4343 40.9505 62.3235C40.9598 62.1482 41.0336 62.0006 41.1443 61.9268C41.2827 61.816 41.4396 61.7422 41.5688 61.7791C41.7533 61.816 41.8733 61.8345 41.984 61.9268C42.1132 62.0375 42.1132 62.1851 42.1685 62.3235C42.1316 62.4712 42.1316 62.5911 42.1685 62.7111C42.2054 62.8587 42.1501 62.9879 42.1685 63.0894C42.187 63.1909 42.187 63.3939 42.1685 63.4677C42.1224 63.6246 42.1778 63.7445 42.1685 63.846C42.187 63.966 42.1593 64.1413 42.1685 64.2336C42.1962 64.3627 42.1501 64.4919 42.1685 64.6119C42.1778 64.7226 42.1593 64.8887 42.1685 64.9902C42.187 65.1655 42.1316 65.2485 42.1685 65.3685C42.1224 65.5069 42.1962 65.6545 42.1685 65.756C42.1778 65.9129 42.1593 65.9867 42.1685 66.1343C42.1593 66.2358 42.1224 66.4388 42.1685 66.5127C42.2054 66.6234 42.1685 66.8079 42.1685 66.891C42.1316 67.0478 42.1408 67.1586 42.1685 67.2785C42.1224 67.4169 42.2054 67.5092 42.1685 67.6568C42.2054 67.7675 42.187 67.8967 42.1685 68.0351C42.2054 68.2012 42.1593 68.2935 42.1685 68.4227Z" fill="white"/>
<path d="M49.4668 65.7186C49.4576 65.8386 49.4207 65.977 49.4299 66.1062C49.3653 66.2538 49.4022 66.383 49.3469 66.4845C49.3284 66.6414 49.2638 66.7613 49.2361 66.8536C49.1439 66.9551 49.1439 67.1304 49.0885 67.2042C49.0608 67.3057 48.9685 67.4164 48.8947 67.5456C48.8025 67.6656 48.7655 67.7948 48.6733 67.8501C48.5902 67.9978 48.4518 68.0716 48.3965 68.1362C48.3226 68.1823 48.2304 68.2838 48.1566 68.3392C48.0643 68.413 47.9536 68.413 47.8982 68.5052C47.8151 68.5606 47.686 68.616 47.6306 68.6437C47.5014 68.7175 47.4184 68.7082 47.3446 68.7544C47.1047 68.8559 46.9293 68.8928 46.7448 68.902C46.5603 68.9574 46.3665 68.9758 46.1266 68.9481C45.9974 68.9758 45.8036 68.9389 45.656 68.9481C45.4622 68.9574 45.3792 68.9389 45.1854 68.9481C44.9547 68.9943 44.7886 68.9574 44.5672 68.8928C44.4934 68.8836 44.3457 68.8651 44.2627 68.7913C44.1335 68.7544 44.1058 68.6806 44.0228 68.6067C43.9213 68.4591 43.8013 68.3115 43.8106 68.1638C43.7829 68.0531 43.7644 67.804 43.7644 67.6748C43.7921 67.4534 43.7921 67.3057 43.7644 67.1027C43.7275 66.872 43.7275 66.706 43.7644 66.5306C43.7367 66.383 43.7644 66.1062 43.7644 65.9493C43.746 65.7371 43.7552 65.5526 43.7644 65.368C43.7644 65.2204 43.8013 65.0266 43.7644 64.7867C43.7829 64.556 43.7737 64.4453 43.7644 64.2146C43.7367 64.0209 43.7183 63.8548 43.7644 63.6333C43.7183 63.4488 43.7552 63.2365 43.7644 63.0612C43.746 62.8675 43.7552 62.6737 43.8198 62.5353C43.8752 62.3415 43.9028 62.1847 44.0782 62.0739C44.1889 61.9909 44.2627 61.9263 44.3181 61.9171C44.3919 61.8986 44.5303 61.8432 44.6041 61.834C44.7702 61.834 45.0193 61.7971 45.1854 61.7879C45.37 61.751 45.536 61.7879 45.656 61.7879C45.859 61.7971 46.0066 61.7787 46.1358 61.7879C46.265 61.751 46.3388 61.7879 46.4864 61.7971C46.6341 61.7971 46.6802 61.8525 46.8371 61.834C46.9201 61.8802 47.1047 61.8894 47.1785 61.9078C47.2892 61.9817 47.3722 62.0001 47.5199 62.0001C47.5845 62.0555 47.6952 62.0924 47.8336 62.1293C47.972 62.2031 48.0181 62.2585 48.1381 62.3046C48.2488 62.3323 48.3503 62.4799 48.4241 62.5076C48.461 62.6091 48.6087 62.6921 48.6733 62.7567C48.7563 62.8306 48.8209 62.9044 48.8947 63.0336C48.9501 63.1258 48.9962 63.1904 49.07 63.3288C49.1069 63.4672 49.1346 63.5226 49.2084 63.6425C49.2546 63.744 49.273 63.8363 49.3192 63.9655C49.3469 64.1131 49.3653 64.2054 49.393 64.3069C49.4391 64.4638 49.4576 64.5283 49.4484 64.6483C49.4945 64.8605 49.4576 65.1097 49.4853 65.3311C49.5037 65.4787 49.4853 65.5526 49.4668 65.7186ZM48.258 65.8571C48.3134 65.6725 48.3042 65.4972 48.2857 65.3311C48.2396 65.1558 48.3042 64.9897 48.258 64.7683C48.2488 64.6206 48.1935 64.3715 48.1473 64.2054C48.092 64.0024 47.9812 63.9009 47.9351 63.6979C47.8982 63.5964 47.8705 63.541 47.7875 63.4672C47.7598 63.4026 47.686 63.338 47.5937 63.255C47.5199 63.1627 47.3815 63.1351 47.2892 63.0336C47.2062 62.9874 47.0401 62.9413 46.9478 62.8951C46.8278 62.8306 46.6894 62.8582 46.5695 62.8121C46.468 62.8398 46.2834 62.7844 46.1912 62.7844C45.9513 62.7752 45.7298 62.8029 45.4622 62.7844C45.25 62.766 45.0931 62.8121 45.0378 62.8951C44.9732 62.9966 44.9455 63.1627 44.9732 63.2458C44.9455 63.4211 44.9455 63.6149 44.9732 63.7717C44.9824 63.9286 44.9363 64.1316 44.9732 64.3069C45.0009 64.4638 44.964 64.6852 44.9732 64.8328C44.9732 65.0451 44.9455 65.2019 44.9732 65.368C44.964 65.5526 45.0009 65.7648 44.9732 65.9032C44.9732 66.1062 44.9824 66.2723 44.9732 66.4384C44.9547 66.6045 44.9547 66.8075 44.9732 66.9643C45.0009 67.1581 44.9824 67.3334 44.9732 67.4903C44.964 67.6471 44.9916 67.7578 45.0655 67.8593C45.1485 67.9608 45.333 67.9516 45.4622 67.9516C45.739 67.9608 45.9513 67.9516 46.1912 67.9516C46.3665 67.9978 46.468 67.9424 46.6156 67.9147C46.7356 67.9239 46.8278 67.8593 47.0032 67.7948C47.1139 67.7578 47.2338 67.6748 47.3722 67.5918C47.4737 67.4995 47.6214 67.4164 47.6767 67.3149C47.8336 67.1581 47.889 67.0658 47.972 66.8813C48.0089 66.7521 48.0827 66.5583 48.1566 66.383C48.1566 66.2261 48.2765 66.0139 48.258 65.8571Z" fill="white"/>
<path d="M55.3817 68.3762C55.3909 68.5515 55.354 68.6438 55.2525 68.7269C55.151 68.7915 55.0403 68.8376 54.9204 68.8745C54.6712 68.9206 54.4129 68.9114 54.2099 68.8745C53.9423 68.893 53.7024 68.8837 53.5086 68.8745C53.3148 68.893 53.0196 68.893 52.8073 68.8745C52.5951 68.8468 52.3644 68.9206 52.1153 68.8745C51.9584 68.8837 51.7278 68.8653 51.4971 68.8284C51.3679 68.8376 51.2387 68.773 51.2018 68.7176C51.0819 68.69 50.9988 68.6069 50.9527 68.5331C50.7958 68.4131 50.8143 68.2471 50.7405 68.0902C50.7312 67.8964 50.7312 67.7672 50.6943 67.6012C50.6943 67.4166 50.6667 67.2321 50.6943 67.0475C50.6574 66.8814 50.7128 66.7061 50.6943 66.4939C50.7036 66.337 50.6759 66.1525 50.6943 65.931C50.6482 65.728 50.6943 65.5989 50.6943 65.3682C50.722 65.1652 50.6943 64.9806 50.6943 64.8146C50.6667 64.6392 50.7036 64.4824 50.6943 64.2517C50.6943 64.1133 50.6482 63.9103 50.6943 63.6981C50.6943 63.4858 50.6851 63.2829 50.6943 63.1352C50.7128 62.9599 50.6759 62.7938 50.7497 62.6093C50.8235 62.4616 50.8604 62.2679 51.0081 62.1479C51.0911 62.0833 51.128 62.0464 51.248 61.9911C51.3125 61.9818 51.4233 61.908 51.534 61.908C51.7462 61.8896 51.9584 61.8896 52.1153 61.8619C52.346 61.908 52.5674 61.8619 52.752 61.8619C52.9365 61.8988 53.1395 61.8619 53.3887 61.8619C53.6286 61.8526 53.767 61.8896 54.0253 61.8619C54.2006 61.8896 54.4959 61.8803 54.6805 61.8711C54.782 61.8803 54.9665 61.9172 55.0126 62.0187C55.068 62.1202 55.1418 62.2402 55.1418 62.3601C55.1418 62.4801 55.1326 62.6093 55.0126 62.7108C54.9665 62.803 54.8004 62.8769 54.6805 62.8584C54.4775 62.8492 54.2652 62.8215 54.0991 62.8584C53.8961 62.8953 53.6747 62.8399 53.5271 62.8584C53.3425 62.8492 53.1303 62.8399 52.955 62.8584C52.7612 62.8953 52.5674 62.8769 52.3829 62.8584C52.2076 62.8492 52.0415 62.9045 51.9584 62.9784C51.8846 63.0614 51.8754 63.1906 51.8754 63.329C51.8754 63.412 51.8846 63.5689 51.8939 63.6981C51.8846 63.8549 51.9031 63.9564 51.8939 64.1963C51.8846 64.4455 51.8939 64.547 51.9861 64.6208C52.0969 64.7038 52.2353 64.7315 52.3091 64.7131C52.5767 64.7315 52.8535 64.6946 53.0011 64.7131C53.2318 64.7038 53.3979 64.7038 53.5732 64.7131C53.7946 64.7592 53.9515 64.7131 54.1545 64.7223C54.2929 64.7131 54.4129 64.8146 54.4867 64.8699C54.5882 64.9991 54.6159 65.0729 54.6159 65.2113C54.6251 65.3959 54.5697 65.442 54.4867 65.562C54.3667 65.7004 54.3114 65.7188 54.1545 65.7096C53.9515 65.6819 53.7116 65.7557 53.5732 65.7096C53.4163 65.6911 53.1949 65.7465 53.0011 65.7096C52.7797 65.7373 52.549 65.7188 52.2629 65.7096C52.023 65.728 51.9123 65.7834 51.8939 65.9403C51.857 66.2171 51.9215 66.4016 51.8939 66.5493C51.8662 66.7246 51.9031 66.8722 51.8939 66.9829C51.8754 67.1675 51.8846 67.2505 51.8939 67.4166C51.8846 67.5366 51.9123 67.6842 51.9861 67.7857C52.0692 67.8872 52.2537 67.8595 52.3829 67.878C52.549 67.9056 52.8073 67.8964 53.0103 67.878C53.241 67.8687 53.4256 67.9149 53.647 67.878C53.8869 67.8872 54.0438 67.8872 54.2745 67.878C54.4959 67.8595 54.6897 67.9056 54.9204 67.8872C55.068 67.8687 55.1418 67.9241 55.2525 68.0348C55.354 68.0994 55.3725 68.2101 55.3817 68.3762Z" fill="white"/>
</svg>
